<?xml version="1.0" standalone="no"?>
<!DOCTYPE svg PUBLIC "-//W3C//DTD SVG 1.1//EN" "http://www.w3.org/Graphics/SVG/1.1/DTD/svg11.dtd" >
<!--
2013-9-30: Created.
-->
<svg>
<metadata>
Created by iconfont
</metadata>
<defs>

<font id="iconfont" horiz-adv-x="1024" >
  <font-face
    font-family="iconfont"
    font-weight="500"
    font-stretch="normal"
    units-per-em="1024"
    ascent="896"
    descent="-128"
  />
    <missing-glyph />
    
    <glyph glyph-name="erji" unicode="&#58888;" d="M987.6352 306.144q0-95.232-34.816-180.224l-11.264-27.648-105.472-18.432q-13.312-48.128-52.224-78.848t-89.088-29.696l0-18.432q0-8.192-5.12-13.312t-13.312-5.12l-36.864 0q-8.192 0-13.312 5.12t-5.12 13.312l0 328.704q0 8.192 5.12 13.312t13.312 5.12l36.864 0q8.192 0 13.312-5.12t5.12-13.312l0-18.432q39.936 0 73.728-20.48t53.248-54.272l38.912 7.168q16.384 54.272 16.384 110.592 0 83.968-50.176 158.72t-135.168 119.808-180.224 44.032-180.224-44.032-135.168-119.808-50.176-159.744q0-55.296 16.384-109.568l38.912-7.168q19.456 34.816 53.248 54.272t74.752 20.48l0 18.432q0 8.192 5.12 13.312t13.312 5.12l35.84 0q8.192 0 13.312-5.12t5.12-13.312l0-328.704q0-8.192-5.12-13.312t-13.312-5.12l-35.84 0q-8.192 0-13.312 5.12t-5.12 13.312l0 18.432q-50.176 0-90.112 29.696t-51.2 78.848l-105.472 18.432-11.264 27.648q-34.816 84.992-34.816 179.2 0 87.04 37.888 166.912t102.4 138.24 152.576 93.184 182.272 34.816 183.296-34.816 151.552-93.184 102.4-138.24 38.912-166.912z"  horiz-adv-x="1024" />

    
    <glyph glyph-name="21" unicode="&#59068;" d="M540.444444 531.911111l0 68.266667-88.029867 19.5584c-3.003733 9.386667-6.826667 18.386489-11.286756 27.022222l48.469333 76.174222-48.275911 48.275911-76.174222-48.469333c-8.635733 4.460089-17.635556 8.283022-27.022222 11.286756L318.577778 822.044444l-68.266667 0-19.5584-88.029867c-9.386667-3.003733-18.386489-6.826667-27.022222-11.286756l-76.174222 48.469333-48.275911-48.275911 48.469333-76.174222c-4.460089-8.635733-8.283022-17.635556-11.286756-27.022222L28.444444 600.177778l0-68.266667 88.029867-19.5584c3.003733-9.386667 6.826667-18.386489 11.286756-27.022222l-48.469333-76.174222 48.275911-48.275911 76.174222 48.469333c8.635733-4.460089 17.635556-8.283022 27.022222-11.286756L250.311111 310.044444l68.266667 0 19.5584 88.029867c9.386667 3.003733 18.386489 6.826667 27.022222 11.286756l76.174222-48.469333 48.275911 48.275911-48.469333 76.174222c4.460089 8.635733 8.283022 17.635556 11.286756 27.022222L540.444444 531.911111zM284.444444 480.711111c-47.126756 0-85.333333 38.206578-85.333333 85.333333s38.206578 85.333333 85.333333 85.333333 85.333333-38.206578 85.333333-85.333333S331.5712 480.711111 284.444444 480.711111zM650.490311 35.817244l21.515378 52.542578-61.599289 42.8032c0.648533 8.169244 0.534756 16.304356-0.170667 24.348444l61.314844 43.360711-21.947733 52.371911-73.910044-13.312c-5.245156 6.144-10.9568 11.935289-17.237333 17.2032l12.686222 73.921422-52.542578 21.515378-42.8032-61.599289c-8.169244 0.648533-16.304356 0.534756-24.348444-0.170667l-43.360711 61.314844-52.371911-21.947733 13.312-73.910044c-6.144-5.245156-11.935289-10.9568-17.2032-17.237333l-73.921422 12.686222-21.515378-52.542578 61.599289-42.8032c-0.648533-8.169244-0.534756-16.304356 0.170667-24.348444l-61.314844-43.360711 21.947733-52.371911 73.910044 13.312c5.245156-6.144 10.9568-11.935289 17.237333-17.2032l-12.686222-73.921422 52.542578-21.515378 42.8032 61.599289c8.169244-0.648533 16.304356-0.534756 24.348444 0.170667l43.360711-61.314844 52.371911 21.947733-13.312 73.910044c6.144 5.233778 11.935289 10.9568 17.2032 17.237333L650.490311 35.817244zM437.293511 77.084444c-36.272356 14.848-53.646222 56.297244-38.798222 92.580978s56.297244 53.646222 92.580978 38.798222c36.272356-14.848 53.646222-56.297244 38.798222-92.580978C515.026489 79.598933 473.577244 62.225067 437.293511 77.084444zM988.603733 579.800178l-18.102044 55.819378-77.175467-7.350044c-4.937956 6.883556-10.467556 13.220978-16.395378 19.103289l19.433244 75.138844-52.280889 26.669511-49.436444-59.835733c-8.237511 1.353956-16.611556 2.104889-25.088 2.059378l-39.344356 66.798933-55.819378-18.102044 7.350044-77.175467c-6.883556-4.937956-13.220978-10.467556-19.103289-16.395378l-75.138844 19.433244-26.669511-52.280889 59.835733-49.436444c-1.353956-8.237511-2.104889-16.611556-2.059378-25.088L551.822222 499.825778l18.102044-55.819378 77.175467 7.350044c4.937956-6.883556 10.456178-13.220978 16.395378-19.103289l-19.433244-75.138844 52.280889-26.669511 49.436444 59.835733c8.237511-1.353956 16.611556-2.104889 25.088-2.059378l39.344356-66.798933 55.819378 18.102044-7.350044 77.175467c6.883556 4.937956 13.220978 10.467556 19.103289 16.395378l75.138844-19.433244 26.669511 52.280889-59.835733 49.436444c1.353956 8.237511 2.104889 16.611556 2.059378 25.088L988.603733 579.800178zM792.849067 470.038756c-38.536533-12.504178-79.917511 8.612978-92.410311 47.149511-12.504178 38.536533 8.612978 79.917511 47.149511 92.410311 38.536533 12.504178 79.917511-8.612978 92.410311-47.149511S831.3856 482.531556 792.849067 470.038756z"  horiz-adv-x="1024" />

    
    <glyph glyph-name="yanjing" unicode="&#58938;" d="M910.001131 433.894364c-50.550303 78.533634-113.946168 137.2622-190.178387 176.187745 20.315698-34.624589 30.472012-72.059176 30.472012-112.305809 0-61.540611-21.8701-114.200972-65.608254-157.982104-43.73713-43.781132-96.398514-65.650209-157.981081-65.606207-61.582567 0.041956-114.243951 21.910009-157.981081 65.606207-43.738154 43.695175-65.60723 96.356558-65.60723 157.982104 0 40.245609 10.158361 77.68122 30.470989 112.305809-76.190263-38.925544-139.583059-97.655134-190.178387-176.187745 44.249807-68.225871 99.719142-122.54808 166.414147-162.964582 66.692958-40.415478 138.985448-60.623729 216.879516-60.623729s150.187581 20.208251 216.880539 60.623729C810.280966 311.346283 865.752348 365.668493 910.001131 433.894364L910.001131 433.894364zM550.662043 625.541195c0 6.643304-2.321882 12.307304-6.962575 16.991999-4.641717 4.684696-10.30674 7.005554-16.991999 6.963599-41.608653 0-77.298504-14.885012-107.067504-44.654013-29.770024-29.769001-44.654013-65.457828-44.654013-107.066481 0-6.644327 2.320858-12.307304 6.963599-16.993023 4.64274-4.683672 10.30674-7.007601 16.991999-6.964622s12.349259 2.366907 16.991999 6.964622c4.641717 4.599761 6.963599 10.264784 6.963599 16.993023 0 28.619828 10.158361 53.064566 30.472012 73.337285s44.760436 30.429033 73.337285 30.472012c6.643304 0 12.308327 2.320858 16.991999 6.962575C548.385187 613.190913 550.705022 618.854912 550.662043 625.541195zM973.885114 433.894364c0-11.328-3.321652-22.805402-9.965979-34.431184-46.591131-76.531024-109.216447-137.837298-187.877995-183.9178-78.661547-46.079478-161.750941-69.121264-249.27125-69.12024-87.518263 0-170.609703 23.125697-249.269203 69.376067C198.841186 262.04953 136.214846 323.269847 89.623715 399.461133c-6.644327 11.626805-9.965979 23.104207-9.965979 34.432207s3.321652 22.805402 9.965979 34.432207c46.591131 76.191286 109.217471 137.411603 187.879018 183.661973 78.659501 46.251394 161.749918 69.376067 249.269203 69.376067s170.609703-23.125697 249.27125-69.376067c78.659501-46.25037 141.284817-107.470687 187.877995-183.661973C970.563462 456.699766 973.885114 445.222363 973.885114 433.894364z"  horiz-adv-x="1024" />

    
    <glyph glyph-name="diaoseban" unicode="&#59160;" d="M512 894.345846c-373.720615 0-512-325.947077-512-508.691692s132.962462-512 501.090462-512c0 0 91.569231-1.654154 91.569231 80.659692s-41.117538 55.965538-41.117538 115.239385 41.117538 85.622154 60.888615 85.622154 149.819077-9.846154 222.247385 18.116923C907.106462 201.255385 1024 290.146462 1024 441.619692 1024 574.976 885.681231 894.345846 512 894.345846zM199.837538 384c-49.112615 0-88.891077 39.817846-88.891077 88.891077 0 49.112615 39.817846 88.930462 88.891077 88.930462s88.891077-39.817846 88.891077-88.930462C288.728615 423.817846 248.910769 384 199.837538 384zM367.576615 603.963077c-49.112615 0-88.891077 39.817846-88.891077 88.891077 0 49.112615 39.817846 88.891077 88.891077 88.891077s88.891077-39.778462 88.891077-88.891077C456.507077 643.780923 416.689231 603.963077 367.576615 603.963077zM652.721231 603.963077c-49.073231 0-88.891077 39.817846-88.891077 88.891077 0 49.112615 39.817846 88.891077 88.891077 88.891077s88.891077-39.778462 88.891077-88.891077C741.612308 643.780923 701.794462 603.963077 652.721231 603.963077zM821.996308 384c-49.073231 0-88.891077 39.817846-88.891077 88.891077 0 49.112615 39.817846 88.930462 88.891077 88.930462 49.112615 0 88.930462-39.817846 88.930462-88.930462C910.926769 423.817846 871.108923 384 821.996308 384z"  horiz-adv-x="1024" />

    
    <glyph glyph-name="name" unicode="&#58959;" d="M832 684.8 198.4 684.8c-44.8 0-76.8-32-76.8-76.8l0-441.6c0-44.8 32-76.8 76.8-76.8L832 89.6c44.8 0 76.8 32 76.8 76.8L908.8 608C908.8 646.4 870.4 684.8 832 684.8zM851.2 166.4c0-12.8-12.8-25.6-25.6-25.6L198.4 140.8c-12.8 0-25.6 12.8-25.6 25.6L172.8 608c0 12.8 12.8 25.6 25.6 25.6L832 633.6c12.8 0 25.6-12.8 25.6-25.6L857.6 166.4zM768 556.8l-128 0c-12.8 0-25.6-12.8-25.6-25.6l0-128c0-12.8 12.8-25.6 25.6-25.6l128 0c12.8 0 25.6 12.8 25.6 25.6l0 128C793.6 544 787.2 556.8 768 556.8zM742.4 428.8l-70.4 0L672 499.2l70.4 0L742.4 428.8zM544 320l-256 0C268.8 320 256 313.6 256 294.4s12.8-25.6 25.6-25.6l256 0c12.8 0 25.6 12.8 25.6 25.6S556.8 320 544 320zM544 224l-256 0c-12.8 0-25.6-12.8-25.6-25.6s12.8-25.6 25.6-25.6l256 0c12.8 0 25.6 12.8 25.6 25.6S556.8 224 544 224z"  horiz-adv-x="1024" />

    
    <glyph glyph-name="click-16" unicode="&#58988;" d="M596.507 2.882c0-47.747-38.801-86.549-86.646-86.549-47.845 0-86.646 38.703-86.646 86.549s38.801 86.646 86.646 86.646 86.646-38.802 86.646-86.646zM805.974 555.821c0 224.93-234.654 228.819-234.654 228.819s-3.89 64.28-60.389 64.28-58.444-64.28-58.444-64.28-232.806-2.917-232.806-227.847l-0.875-295.238v-112.805h587.17v407.071zM861.599 32.055h-699.197c-32.188 0-58.348 26.159-58.348 58.348 0 32.188 26.159 58.348 58.348 58.348h699.197c32.188 0 58.348-26.159 58.348-58.348 0-32.189-26.16-58.348-58.348-58.348z"  horiz-adv-x="1024" />

    
    <glyph glyph-name="fangdajing" unicode="&#58941;" d="M989.365677-7.944258l-201.496774 200.40671c53.611355 71.911226 85.322323 161.147871 85.322323 257.651613 0 237.534968-192.165161 430.757161-428.32929 430.757161-236.164129 0-428.32929-193.222194-428.32929-430.757161 0-237.501935 192.165161-430.674581 428.32929-430.674581 96.322065 0 185.228387 32.107355 256.858839 86.23071L903.597419-95.149419c11.924645-11.792516 27.35071-17.70529 42.892387-17.70529 15.706839 0 31.430194 6.044903 43.354839 18.21729C1013.495742-70.556903 1013.330581-31.744 989.365677-7.944258zM444.861935 142.03871c-168.96 0-306.407226 138.223484-306.407226 308.058839 0 169.917935 137.43071 308.108387 306.407226 308.108387 168.976516 0 306.407226-138.190452 306.407226-308.108387C751.269161 280.262194 613.838452 142.03871 444.861935 142.03871z"  horiz-adv-x="1024" />

    
    <glyph glyph-name="cha" unicode="&#58890;" d="M886.528-12.032c-28.096-28.096-73.856-28.096-102.016 0L138.304 634.176c-28.096 28.16-28.16 73.856 0 102.016 28.032 28.16 73.792 28.16 102.08 0l646.144-646.144C914.624 61.76 914.752 16.128 886.528-12.032L886.528-12.032zM885.76 634.496 239.616-11.648c-28.224-28.224-73.92-28.224-102.08 0-28.16 28.096-28.16 73.728 0.064 102.016L783.744 736.448c28.224 28.16 73.984 28.16 102.016 0.064C913.984 708.352 913.856 662.656 885.76 634.496L885.76 634.496z"  horiz-adv-x="1024" />

    
    <glyph glyph-name="shu" unicode="&#58932;" d="M893.614907 775.15528c-19.080745 0-31.801242-12.720497-31.801242-31.801242l0-737.78882c0-31.801242-31.801242-63.602484-63.602484-63.602484L238.509317-58.037267c-38.161491 0-82.68323 31.801242-82.68323 63.602484l0 69.962733c0 31.801242 38.161491 50.881988 76.322981 50.881988l534.26087 0c19.080745 0 31.801242 12.720497 31.801242 31.801242L798.21118 781.515528c0 69.962733-50.881988 114.484472-127.204969 114.484472L238.509317 896C168.546584 896 98.583851 857.838509 98.583851 781.515528l0-782.310559c0 0 0 0 0-6.360248 0-6.360248 0-6.360248 0-12.720497 6.360248-57.242236 63.602484-101.763975 120.84472-108.124224 0 0 6.360248 0 6.360248 0 0 0 0 0 6.360248 0l566.062112 0c69.962733 0 127.204969 57.242236 127.204969 120.84472L925.416149 743.354037C925.416149 756.074534 912.695652 775.15528 893.614907 775.15528zM772.770186 62.807453 251.229814 62.807453c-19.080745 0-31.801242-12.720497-31.801242-31.801242s12.720497-31.801242 31.801242-31.801242l521.540373 0c19.080745 0 31.801242 12.720497 31.801242 31.801242S791.850932 62.807453 772.770186 62.807453z"  horiz-adv-x="1024" />

    
    <glyph glyph-name="zhuanfa" unicode="&#58919;" d="M915.874 239.065v-217.785c0-37.32-30.674-69.016-66.972-69.016l-706.524-1.022c-36.298 0-65.949 30.674-65.949 67.994l1.022 727.996c0 37.32 30.674 69.016 66.972 69.016h391.093v79.752h-391.093c-82.82 0-144.168-85.887-144.168-163.083v-714.193c0-80.775 63.904-146.724 142.123-146.724h692.721c82.82 0 157.971 71.061 157.971 148.769v217.785l-77.196 0.511zM274.277 208.903c168.707 247.948 458.065 215.229 458.065 215.229v-171.774l291.403 301.116-291.403 301.116v-171.774c-404.897-0.511-458.065-473.913-458.065-473.913z"  horiz-adv-x="1024" />

    
    <glyph glyph-name="bi" unicode="&#58939;" d="M369.269 12.325L47.334-79.012l91.335 321.938z m631.503 631.566l-77.526-77.526L692.648 796.963l77.522 77.524s36.951 36.895 74.509-0.663c37.562-37.563 110.575-110.574 151.709-151.71 41.138-41.134 4.385-78.223 4.385-78.223zM900.035 543.213L392.214 35.392l-230.54 230.54 507.821 507.821 230.54-230.54z"  horiz-adv-x="1024" />

    
    <glyph glyph-name="santiaogang" unicode="&#59124;" d="M0 390.865208c0 0.722653 0.722653 2.16796 0.722653 2.890614 3.613267 18.788991 13.007763 33.242061 29.628793 42.636556 7.226535 4.335921 15.175723 5.781228 23.124912 6.503881 2.890614 0 5.781228 0 8.671842 0 299.9012 0 599.079746 0 898.980946 0 20.234298 0 35.410021-8.671842 46.972477-24.570219 8.671842-12.285109 12.285109-25.292872 10.839802-40.468596-2.890614-23.124912-18.788991-43.35921-42.636556-49.140438-6.503881-1.445307-13.007763-2.16796-20.234298-2.16796-161.151729 0-322.303458 0-483.455187 0-138.026817 0-276.053634 0-414.080452 0-23.847565 0-39.745942 11.562456-51.308398 31.0741-3.613267 5.781228-5.058574 12.285109-6.503881 18.788991 0 0.722653-0.722653 2.16796-0.722653 2.890614C0 383.638673 0 387.251941 0 390.865208L0 390.865208zM0 690.766408c0 0.722653 0.722653 2.16796 0.722653 2.890614 3.613267 18.788991 13.007763 33.242061 29.628793 42.636556 7.226535 4.335921 15.175723 5.781228 23.124912 6.503881 2.890614 0 5.781228 0 8.671842 0 299.9012 0 599.079746 0 898.980946 0 20.234298 0 35.410021-8.671842 46.972477-24.570219 8.671842-12.285109 12.285109-25.292872 10.839802-40.468596-2.890614-23.124912-18.788991-43.35921-42.636556-49.140438-6.503881-1.445307-13.007763-2.16796-20.234298-2.16796-161.151729 0-322.303458 0-483.455187 0-138.026817 0-276.053634 0-414.080452 0-23.847565 0-39.745942 11.562456-51.308398 31.0741-3.613267 5.781228-5.058574 12.285109-6.503881 18.788991C0.722653 677.758645 0 679.203952 0 679.926606 0 683.539873 0 687.15314 0 690.766408L0 690.766408zM51.308398 33.151729c-1.445307 0-2.16796 0.722653-3.613267 0.722653-16.62103 3.613267-28.183486 13.007763-36.855328 27.460833-6.503881 10.839802-9.394495 22.402258-8.671842 34.687368 2.16796 24.570219 19.511644 46.249824 44.804517 52.031052 5.058574 1.445307 10.839802 1.445307 16.62103 1.445307 67.206775 0 134.41355 0 200.897671 0 232.694425 0 466.111503 0 698.805928 0 19.511644 0 34.687368-8.671842 46.249824-23.847565 7.226535-10.117149 11.562456-22.402258 11.562456-34.687368 0-14.45307-5.058574-27.460833-14.45307-38.300635-9.394495-10.839802-21.679605-17.343684-36.132675-18.788991-0.722653 0-1.445307 0-2.16796-0.722653C662.673253 33.151729 356.990826 33.151729 51.308398 33.151729L51.308398 33.151729zM1024 706.664785c-0.722653 2.16796-0.722653 5.058574-1.445307 7.226535L1024 706.664785z"  horiz-adv-x="1024" />

    
    <glyph glyph-name="beizi" unicode="&#58972;" d="M814.93504 620.63104C814.93504 762.31168 675.53792 896 675.53792 896H346.4704S208.21504 757.73952 208.21504 613.77536c17.14176-212.52096 273.08544-338.42176 273.08544-338.42176v-315.14624l-166.82496-84.60288h367.91808l-146.24768 86.89152V275.3536c27.42272 15.79008 251.37152 103.04512 278.78912 345.27744z m-278.79424-310.784H483.584S273.34144 410.3936 236.77952 618.34752c-6.2208 102.1184 114.2528 242.2272 114.2528 242.2272h319.93344s132.54656-139.39712 114.25792-246.79936-45.70624-173.6704-249.08288-303.92832z"  horiz-adv-x="1024" />

    
    <glyph glyph-name="ren" unicode="&#58882;" d="M639.982 283.24c-5.682 1.846-41.825 17.689-19.231 84.488h-0.349c58.805 58.979 103.787 153.877 103.787 247.299 0 143.654-98.132 218.972-212.158 218.972-114.098 0-211.686-75.284-211.686-218.972 0-93.822 44.694-189.092 103.871-247.929 23.062-58.924-18.177-80.786-26.814-83.791-119.41-42.153-259.542-118.769-259.542-194.431 0-20.429 0-8.063 0-28.351 0-103.095 205.306-126.528 395.29-126.528 190.261 0 392.99 23.433 392.99 126.528 0 20.288 0 7.922 0 28.351 0 77.946-140.834 153.99-266.158 194.363z"  horiz-adv-x="1024" />

    
    <glyph glyph-name="wenhao" unicode="&#59161;" d="M512 793.6c-226.1 0-409.6-183.5-409.6-409.6S285.9-25.6 512-25.6 921.6 157.9 921.6 384 738.1 793.6 512 793.6z m30.6-657.7c-10-8.9-21.5-13.3-34.6-13.3-13.5 0-25.3 4.4-35.4 13.1-10.1 8.8-15.1 21-15.1 36.7 0 14 4.9 25.7 14.6 35.2 9.7 9.5 21.7 14.3 35.9 14.3 14 0 25.7-4.8 35.2-14.3 9.5-9.5 14.3-21.3 14.3-35.2 0-15.5-4.9-27.7-14.9-36.5z m124.1 307.8c-7.6-14.2-16.7-26.4-27.3-36.7-10.5-10.3-29.4-27.6-56.7-52-7.5-6.9-13.6-12.9-18.1-18.1-4.5-5.2-7.9-10-10.1-14.3-2.2-4.3-3.9-8.6-5.2-13-1.2-4.3-3-11.9-5.5-22.8-4.2-23.1-17.4-34.6-39.6-34.6-11.5 0-21.2 3.8-29.1 11.3-7.9 7.5-11.8 18.7-11.8 33.6 0 18.6 2.9 34.7 8.6 48.4 5.8 13.6 13.4 25.6 22.9 35.9 9.5 10.3 22.4 22.5 38.6 36.7 14.2 12.4 24.4 21.8 30.7 28.1 6.3 6.3 11.6 13.3 16 21.1 4.3 7.8 6.5 16.2 6.5 25.3 0 17.7-6.6 32.7-19.8 44.9-13.2 12.2-30.2 18.3-51 18.3-24.4 0-42.3-6.1-53.9-18.4-11.5-12.3-21.3-30.4-29.3-54.3-7.5-25-21.8-37.6-42.9-37.6-12.4 0-22.9 4.4-31.4 13.1-8.5 8.8-12.8 18.2-12.8 28.4 0 21.1 6.8 42.4 20.3 64s33.2 39.5 59.2 53.7c25.9 14.2 56.2 21.3 90.7 21.3 32.1 0 60.5-5.9 85.1-17.8 24.6-11.9 43.6-28 57-48.4 13.4-20.4 20.1-42.5 20.1-66.5 0.3-18.9-3.5-35.4-11.2-49.6z"  horiz-adv-x="1024" />

    
    <glyph glyph-name="aite" unicode="&#59035;" d="M870.816 181.28c-11.488 0-21.536-6.016-27.312-15.024-24.784-34.88-61.696-64.576-110.928-89.04-49.872-24.784-111.712-37.184-185.504-37.184-69.024 0-131.936 11.904-188.688 35.696-56.784 23.808-100.16 60.656-130.16 110.512s-45.008 109.296-45.008 178.336c0 65.92 15.008 127.68 45.008 185.296s72.256 101.84 126.784 132.704c54.496 30.848 114.72 46.272 180.624 46.272 57.744 0 110.528-12.256 158.288-36.768s83.664-57.184 107.744-98.032c24.096-40.864 36.128-84.816 36.128-131.84 0-40.32-9.376-79.392-28.096-117.28-18.752-37.888-44.16-68.096-76.288-90.64-24.224-17.184-43.808-25.76-58.752-25.76-8.16 0-15.12 2.736-20.912 8.224-5.776 5.504-8.656 12.064-8.656 19.664 0 4.24 4.224 26.064 12.656 65.504l57.504 267.856-0.128 0.016c0.528 2.496 0.848 5.056 0.848 7.712 0 20.336-16.48 36.816-36.848 36.816-17.6 0-32.288-12.384-35.904-28.912l-0.256 0.064-14.368-65.504c-16.032 26.208-35.216 45.696-57.472 58.528-22.256 12.816-45.632 19.216-70.128 19.216-32.128 0-65.248-11.264-99.312-33.792-34.096-22.544-62.624-56.288-85.6-101.216-22.944-44.944-34.432-89.792-34.432-134.592 0-36.336 7.408-69.728 22.192-100.144 14.816-30.432 34.032-52.976 57.68-67.632s48.032-21.968 73.12-21.968c22.816 0 45.568 6.4 68.224 19.216 22.688 12.816 43.184 29.792 61.504 50.944 1.68-17.184 4.368-29.312 8.032-36.336 5.632-11.008 14.432-19.44 26.4-25.36s27.68-8.88 47.12-8.88c60.848 0 116.912 28.448 168.192 85.36 57.472 63.376 86.192 135.92 86.192 217.632 0 57.184-13.664 110.16-40.976 158.896-32.128 56.624-76 99.232-131.664 127.84-55.632 28.576-118.368 42.896-188.256 42.896-90.16 0-166.848-20.304-230.096-60.864s-112.064-99.024-146.416-175.376c-28.176-62.272-42.256-127.76-42.256-196.496 0-61.696 11.824-119.168 35.504-172.4 18.864-41.984 46.896-79.088 84.08-111.36 37.184-32.256 82.192-56.4 135.024-72.464 52.816-16.064 110.496-24.096 173.024-24.096 67.904 0 125.936 8.96 174.096 26.848 48.192 17.888 89.744 42.192 124.688 72.896 19.952 17.552 36.56 34.928 49.808 52.112 0.144 0.192 0.128 0.368 0.24 0.56 3.84 5.344 6.16 11.84 6.16 18.912 0.048 17.872-14.496 32.432-32.448 32.432zM589.328 347.872c-10.16-28.592-23.184-52.192-39.088-70.784s-32.624-32.624-50.064-42.064c-17.504-9.44-34.096-14.16-49.872-14.16-23.664 0-44.656 10.72-62.976 32.128s-27.472 51.408-27.472 90c0 24.24 4.496 50.864 13.536 79.872 8.992 29.008 20.976 53.664 35.904 73.952s30.336 35.008 46.288 44.16c15.904 9.152 32.88 13.728 50.912 13.728 27.344 0 50.496-10.56 69.536-31.68 19.008-21.12 28.528-50.864 28.528-89.152-0.016-28.752-5.104-57.408-15.232-86z"  horiz-adv-x="1024" />

    
    <glyph glyph-name="laba" unicode="&#59095;" d="M631.36 149.568c-3.52-13.056-6.208-25.6-10.56-37.568a179.328 179.328 0 0 0-181.888-116.864 179.392 179.392 0 0 0-166.144 177.6c-0.256 17.728 12.288 31.04 29.056 31.296 17.216 0.384 30.208-12.672 30.72-30.592 1.216-43.328 19.776-77.376 56.192-100.608 75.136-47.936 175.68 2.496 182.848 91.328 0.448 4.928-2.304 5.376-5.44 6.4l-147.648 46.976c-75.008 23.808-150.08 47.616-225.024 71.552-4.288 1.344-7.104 1.28-10.88-1.984-28.8-24.576-61.376-30.464-96-15.168-34.112 15.168-52.48 42.88-53.248 80.512a2996.736 2996.736 0 0 0 0 122.304c0.704 37.632 18.88 65.408 53.184 80.64 34.496 15.296 67.136 9.536 96-14.848 3.712-3.2 6.528-3.648 10.88-2.304C404.8 605.696 616.32 672.96 827.648 740.416a24.96 24.96 0 0 1 9.344 5.568c28.032 26.56 60.672 34.624 96.64 20.736 36.032-13.952 54.848-41.728 57.472-80.32 0.128-2.048 0.064-4.096 0.064-6.208v-532.8c0-42.944-24.448-77.568-63.808-89.024-33.344-9.664-63.232-1.92-88.96 21.696a38.272 38.272 0 0 1-12.928 7.744c-62.72 20.16-125.568 40.192-188.288 60.096-1.92 0.64-3.904 1.152-5.824 1.664z m179.648 522.176l-6.336-1.792C609.28 607.808 413.76 545.6 218.24 483.52c-4.096-1.28-5.312-3.008-5.248-7.36 0.192-40.96 0.32-81.92-0.064-122.88 0-6.208 2.048-8.384 7.552-10.112A509067.748 509067.748 0 0 0 750.272 174.72l60.672-19.2 0.064 516.224z m120.32-258.432V585.92c0 32.448 0.128 64.96 0 97.408a29.824 29.824 0 1 1-59.712-1.216v-540.16a30.08 30.08 0 0 1 28.032-27.52c18.56-0.896 31.68 12.352 31.68 31.808 0.064 89.088 0 178.048 0 267.072z m-778.816 0v60.16a29.312 29.312 0 0 1-28.992 30.016 29.44 29.44 0 0 1-30.464-28.8c-0.32-40.768-0.32-81.472 0-122.24a29.312 29.312 0 0 1 30.08-28.416 29.312 29.312 0 0 1 29.376 29.696v59.584z"  horiz-adv-x="1024" />

    
    <glyph glyph-name="shujia" unicode="&#58894;" d="M972.8-128H153.6a153.6 153.6 0 0 0-153.6 153.6V742.4a153.6 153.6 0 0 0 153.6 153.6h819.2a153.6 153.6 0 0 0 153.6-153.6v-716.8a153.6 153.6 0 0 0-153.6-153.6z m102.4 870.4a102.4 102.4 0 0 1-102.4 102.4H153.6a102.4 102.4 0 0 1-102.4-102.4v-716.8a102.4 102.4 0 0 1 102.4-102.4h819.2a102.4 102.4 0 0 1 102.4 102.4V742.4zM256 691.2h51.2v-614.4h-51.2V691.2zM409.6 691.2h51.2v-614.4h-51.2V691.2zM563.2 691.2h51.2v-614.4h-51.2V691.2zM689.3568 674.0992l49.4592 13.2608 159.0272-593.4592-49.4592-13.2608-159.0272 593.4592z"  horiz-adv-x="1126" />

    
    <glyph glyph-name="mima" unicode="&#58889;" d="M245.76 558.08h-10.24c-20.48 10.24-30.72 25.6-25.6 46.08C261.12 747.52 394.24 844.8 542.72 844.8s281.6-92.16 327.68-235.52c5.12-15.36-5.12-35.84-20.48-40.96-15.36-5.12-35.84 5.12-40.96 20.48-40.96 112.64-148.48 189.44-266.24 189.44-122.88 0-230.4-76.8-266.24-194.56-5.12-15.36-20.48-25.6-30.72-25.6zM916.48 506.88H158.72c-30.72 0-56.32-25.6-56.32-61.44v-450.56c0-30.72 25.6-56.32 56.32-56.32h757.76c30.72 0 56.32 25.6 56.32 56.32V445.44c0 35.84-25.6 61.44-56.32 61.44zM563.2 153.6v-66.56c0-15.36-10.24-25.6-25.6-25.6s-25.6 10.24-25.6 25.6v66.56c-40.96 10.24-76.8 51.2-76.8 97.28 0 56.32 46.08 97.28 97.28 97.28s97.28-46.08 97.28-97.28c5.12-51.2-25.6-87.04-66.56-97.28z"  horiz-adv-x="1024" />

    
    <glyph glyph-name="xueli" unicode="&#58891;" d="M983.305159 553.277358L537.249057 787.047566a58.486042 58.486042 0 0 1-54.254671-0.001024L36.913724 553.279405c-19.332301-10.126638-31.341822-29.970592-31.341822-51.788504 0-21.848611 12.021801-41.696658 31.347962-51.785433l135.075395-70.707389v-238.902088c0-6.427386 1.079588-12.596899 3.060709-18.322298 3.148713-11.711739 10.724249-25.493627 27.186176-39.005362 24.854061-20.388353 72.27407-41.707914 130.102127-58.493206 60.141752-17.457604 120.787994-27.070542 170.767291-27.070542a405.638577 405.638577 0 0 1 8.489349 0.086981c51.993165 1.206478 133.00627 15.890922 197.008956 35.709293 93.232404 28.870538 138.554636 62.726623 138.554635 103.503329h-0.077771c0.38067 2.64627 0.578168 5.355985 0.578168 8.111748V378.703367l115.26828 60.337203v-311.889402h51.16531V493.485577c0.36225 2.638083 0.547469 5.324262 0.547469 8.03807 0.001023 21.770839-12.000312 41.597397-31.340799 51.753711zM796.500613 144.613888c0-2.1295-1.020236-3.142573-1.272993-3.279697a0.971118 0.971118 0 0 0 0.37453 0.079818v-6.418176c-3.053546-6.997368-24.785499-29.170366-102.126982-53.119825-59.991326-18.576077-135.2688-32.32522-183.000918-33.43346-2.367931-0.049119-4.845355-0.073678-7.362688-0.073678-44.6315 0-101.675704 9.127891-156.50445 25.043372-49.91176 14.486946-92.795453 33.230845-111.908765 48.909944-6.540973 5.368264-10.44591 10.670014-10.44591 14.180977h-0.150426v0.529049c0.113587 0 0.24764-0.036839 0.297782-0.063445-0.330528 0.170892-1.238201 1.228991-1.238201 3.127224V352.214063l259.838934-136.016837a58.684564 58.684564 0 0 1 27.123754-6.678096c9.434883 0 18.823718 2.319835 27.089985 6.674003l259.288394 135.726218V144.613888z m163.131381 350.449627L513.423419 261.492852c-2.016937-1.063215-4.597715-1.066285-6.690376 0.031722L60.623729 495.048165c-2.360767 1.233084-3.886517 3.761674-3.886517 6.442736a7.28287 7.28287 0 0 0 3.92131 6.467295l446.075544 233.763045a7.30436 7.30436 0 0 0 3.393284 0.847298c1.152243 0 2.303462-0.280386 3.374863-0.841158l446.034613-233.758952c2.433422-1.278109 3.944845-3.747347 3.944845-6.443759 0-2.738367-1.485841-5.219885-3.849677-6.461155z"  horiz-adv-x="1024" />

    
    <glyph glyph-name="ft-password" unicode="&#59166;" d="M832 512v64c0 176-144 320-320 320S192 752 192 576v-64c-35.2 0-64-28.8-64-64v-512c0-35.2 28.8-64 64-64h640c35.2 0 64 28.8 64 64V448c0 35.2-28.8 64-64 64z m-256-364.8V0h-128v147.2c-38.4 22.4-64 64-64 108.8 0 70.4 57.6 128 128 128s128-57.6 128-128c0-48-25.6-89.6-64-108.8zM704 512H320v64c0 105.6 86.4 192 192 192s192-86.4 192-192v-64z"  horiz-adv-x="1024" />

    
    <glyph glyph-name="jiangbei" unicode="&#59033;" d="M962.873716 790.341818a105.192727 105.192727 0 0 1-111.709091 6.283637V896H173.928262v-97.745455a106.356364 106.356364 0 0 1-111.941818-7.912727C34.757353 772.654545 20.328262 735.650909 23.120989 687.709091 29.87008 570.181818 124.124625 405.643636 269.579171 330.472727A656.756364 656.756364 0 0 1 442.03008 202.007273v-41.425455h-47.941818v-137.774545h40.029091c-19.316364-43.287273-118.225455-54.458182-159.650909-54.458182h-15.825455V-128h502.923636v96.116364H744.575535c-38.4 0-139.636364 12.8-159.65091 54.458181h40.96V160.581818h-47.941818v41.425455a709.818182 709.818182 0 0 1 171.054546 126.603636C897.477353 402.618182 991.731898 570.181818 1000.575535 687.709091c3.956364 47.941818-10.472727 84.945455-37.701819 102.632727z m-907.636363-101.003636c-1.629091 36.770909 6.283636 64.232727 23.272727 75.403636a73.309091 73.309091 0 0 0 93.090909-4.654545v-209.454546A286.952727 286.952727 0 0 1 213.491898 407.272727C119.47008 485.701818 60.357353 602.763636 55.47008 689.338182z m913.687272 0c-4.654545-86.574545-65.629091-206.661818-161.28-285.323637a288.116364 288.116364 0 0 1 41.425455 147.316364V758.225455a75.869091 75.869091 0 0 0 95.883636 6.283636c17.92-11.170909 25.832727-38.4 24.436364-75.170909z"  horiz-adv-x="1024" />

    
    <glyph glyph-name="tubiaozhizuomoban" unicode="&#58937;" d="M806.821 530.294c-17.925 36.563-30.401 67.646-40.68 140.74-139.037-39.627-132.783-183.71-123.805-255.102C531.07 521.626 505.126 698.309 515.529 891.461 156.715 783.322 272.935 394.106 293.615 289.125 199.129 343.737 166.808 542.74 166.808 542.74 82.351 499.274 40 383.24 40 289.125 40 61.515 224.516-123 452.125-123c227.61 0 412.125 184.515 412.125 412.125 0 71.268-14.117 167.023-57.429 241.169z m-354.696-589.89c-192.595 0-343.365 147.426-348.721 348.721-0.991 37.987 21.826 119.903 35.695 133.773 19.659-55.168 59.287-209.932 241.201-209.932-38.42 157.022-136.343 454.135 71.825 583.389 0-261.324 88.759-465.591 272.222-465.158-19.009 56.252-32.135 166.837-2.693 225.907 15.232-48.575 78.264-148.139 79.192-267.98-16.192-198.508-156.125-348.72-348.721-348.72z"  horiz-adv-x="1024" />

    
    <glyph glyph-name="biaoqian" unicode="&#58912;" d="M742.912 49.152c-3.584 0-7.168 1.536-10.24 4.096l-219.648 205.312-219.648-205.312c-4.608-4.096-10.752-5.12-16.384-2.56s-9.216 7.68-9.216 13.824V615.936c0 41.984 34.304 76.288 76.288 76.288h337.408c41.984 0 76.288-34.304 76.288-76.288v-551.936c0-6.144-3.584-11.264-9.216-13.824-1.536-1.024-3.584-1.024-5.632-1.024z"  horiz-adv-x="1024" />

    
    <glyph glyph-name="shouji" unicode="&#58898;" d="M854.152533 13.7216a102.4 102.4 0 0 0-102.365866-102.365867H291.908267a102.4 102.4 0 0 0-102.4 102.365867V754.2784a102.4 102.4 0 0 0 102.4 102.365867h459.8784a102.4 102.4 0 0 0 102.365866-102.365867v-740.5568zM795.067733 754.2784c0 23.893333-19.3536 43.3152-43.281066 43.3152H291.908267c-23.927467 0-43.3152-19.387733-43.3152-43.3152v-740.522667a43.349333 43.349333 0 0 1 43.3152-43.281066h459.8784c23.893333 0 43.281067 19.387733 43.281066 43.281066V754.2784z m0 0M823.944533 103.355733H218.385067a14.779733 14.779733 0 1 0 0 29.5936h605.525333a14.813867 14.813867 0 0 0 0.034133-29.5936z m0 0M823.944533 694.1696H218.385067c-8.192 0-14.779733 6.587733-14.779734 14.779733s6.587733 14.779733 14.779734 14.779734h605.525333a14.779733 14.779733 0 1 0 0.034133-29.559467z m0 0M558.762667 40.584533a25.838933 25.838933 0 0 0-25.838934-25.838933h-7.406933a25.873067 25.873067 0 0 0-25.838933 25.838933v7.406934c0 14.267733 11.605333 25.838933 25.838933 25.838933h7.406933c14.267733 0 25.838933-11.5712 25.838934-25.838933v-7.406934z m0 0"  horiz-adv-x="1024" />

    
    <glyph glyph-name="youjiantou" unicode="&#58887;" d="M33.983285559835394 341.37896715588477L844.3269608823044 341.37896715588477 637.3996785040327 142.17610834172842c-5.296905397201645-5.298286238024694-5.296905397201645-13.885735316543212 4.905732080279064e-15-19.185402395390945l41.56330877366258-41.564689614485566a13.569522768065841 13.569522768065841 0 0 1 19.186783236213994 9.811464160558128e-15l260.49009790419734 250.77312103242812c0.2996424586008229 0.2526938706172841 0.5965232355555554 0.5136727861728396 0.879595604279835 0.7953643140740744l1.3918875496296288 1.39188754962963 40.174182905679 38.67320893102883a13.530859225020574 13.530859225020574 0 0 1 3.9381580273250956 10.328689356378598 13.523955020905348 13.523955020905348 0 0 1-3.935396345679019 10.353544491193414l-41.56607045530864 40.06509648065842c-0.2692639604938272 0.26374059720164594-0.5495746475720168 0.5109111045267488-0.8312661754732514 0.7511774077366251l-260.53980817382717 250.8159270979422a13.56676108641975 13.56676108641975 0 0 1-19.186783236213994-9.811464160558128e-15l-41.56607045530862-41.56607045530865c-5.296905397201645-5.296905397201647-5.296905397201645-13.885735316543212 9.811464160558128e-15-19.186783236213994L842.3854986851029 427.28797896164633l-808.3994514436214-3.139668531378601e-13c-7.492442305843622-2.452866040139532e-15-13.565380245596698-6.072937939753094-13.565380245596698-13.56399940477367l2.4528660401395314e-14-58.783774677860066c4.292515570244181e-15-7.489680624197531 6.072937939753094-13.565380245596698 13.565380245596714-13.565380245596698l-0.002761681646090537 0.004142522469135801z"  horiz-adv-x="1024" />

    
    <glyph glyph-name="arrow-fill-right" unicode="&#58933;" d="M211.55276692708333 35.582226562499955l-2.2737367544323206e-13 702.615234375c-1.0658141036401503e-14 38.88193359375 31.203808593749976 70.33271484375001 70.08662109374998 70.33183593750003 18.0791015625 5.329070518200751e-15 34.42675781250001-6.936328124999992 46.81142578125-18.078222656249984l463.62568359375007-347.4659179687498c30.709863281250005-23.279589843749985 37.152246093750016-67.11855468749998 13.87001953125003-98.07275390624997-3.9638671874999973-5.450097656250001-8.673046874999997-10.155761718750002-13.870898437499992-13.870898437500006l-468.5721679687498-351.43681640625016c-30.713378906249993-23.02646484375001-74.7861328125-16.836328125000023-97.82490234375001 14.11874999999997-9.660058593750007 12.63427734375-14.118750000000002 27.24345703125-14.118750000000013 41.85263671874999v0z"  horiz-adv-x="1024" />

    
    <glyph glyph-name="biaoge" unicode="&#58896;" d="M672 672V512H896v-64h-224v-160H896v-64h-224v-160h-64v160h-192v-160h-64v160H128v64h224V448H128V512h224V672H128V64h768V672h-224z m-64 0h-192V512h192V672z m0-224h-192v-160h192V448zM64 666.0096c0 56.32 45.6704 101.9904 102.7584 101.9904h690.4832a102.4 102.4 0 0 0 102.7584-101.9904v-564.0192c0-56.32-45.6704-101.9904-102.7584-101.9904H166.7584a102.4 102.4 0 0 0-102.7584 101.9904V666.0096z"  horiz-adv-x="1024" />

    
    <glyph glyph-name="bianqiangai" unicode="&#58964;" d="M969.156077037037 345.72454874074083L473.8337754074074 841.048064a30.716965925925923 30.716965925925923 0 0 1-21.715474962962965 8.997850074074075H76.80091022222223c-16.961687703703706 0-30.714538666666666-13.737073777777777-30.714538666666666-30.714538666666666v-375.31617659259257a30.692693333333334 30.692693333333334 0 0 1 8.997850074074075-21.715474962962965l495.32351525925924-495.32351525925924c5.998971259259259-5.998971259259259 13.857223111111109-8.997850074074075 21.715474962962965-8.997850074074075s15.716503703703703 2.998878814814815 21.715474962962965 8.997850074074075l375.31617659259257 375.31617659259257c11.999156148148149 11.997942518518517 11.999156148148149 31.434221037037034 0.0012136296296296298 43.432163555555555z m-686.7481031111112 177.00788148148146c-50.25640296296296 0-90.996736 40.74033303703703-90.996736 90.996736s40.74033303703703 90.996736 90.996736 90.996736 90.996736-40.74033303703703 90.996736-90.996736-40.741546666666665-90.996736-90.996736-90.996736z"  horiz-adv-x="1024" />

    
    <glyph glyph-name="touxiang" unicode="&#58892;" d="M896 896h-768c-70.688 0-128-57.312-128-128v-768c0-70.688 57.312-128 128-128h768c70.688 0 128 57.312 128 128v768c0 70.688-57.312 128-128 128zM512 768c106.048 0 192-85.984 192-192s-85.952-192-192-192c-106.048 0-192 85.984-192 192 0 106.016 85.952 192 192 192zM128 0c0 176.704 143.264 320 320 320h128c176.736 0 320-143.296 320-320h-768z"  horiz-adv-x="1024" />

    
    <glyph glyph-name="icon-test" unicode="&#58913;" d="M652.269049 237.047899L550.072068 328.991213l-442.463869-456.991213h1338.861811L1000.56192 332.553928l-106.154675-95.506029c-32.356716-32.751695-75.267282-50.770657-121.061198-50.770657-45.801816 0-88.720282 18.011063-121.076998 50.770657M84.620395 875.587462l495.596504-445.987086c0.19749-0.18959 0.434477-0.308084 0.631967-0.497674 0.094795-0.094795 0.157992-0.205389 0.236988-0.284385l138.242804-124.402725c14.41675-14.898625 33.596951-23.098398 54.009489-23.098397 20.404638 0 39.592739 8.199773 54.017388 23.098397l2.354078 2.275082L1462.055899 875.587462c11.399107 10.253666 26.384627 13.784782 40.374798 11.217417C1491.410771 892.476783 1479.103212 896 1465.887199 896H80.781195C67.580982 896 55.273423 892.476783 44.237697 886.804879c13.998071 2.567366 28.975692-0.96375 40.382698-11.217417M1541.020189 844.281392c1.200738-14.306155-3.886598-29.00729-15.388399-39.355752L1071.26324 396.169317l456.714728-471.716047c3.294129-3.404723 5.7667-7.259722 7.836392-11.256914 6.706751 11.762488 10.854035 25.144391 10.854035 39.584839V815.218805c0.0079 10.269465-2.124989 20.009658-5.648206 29.062587M26.100241-75.54673l453.262608 468.153332L21.052404 804.92564C9.550603 815.274102 4.447469 829.975237 5.656106 844.281392 2.132889 835.228463 0 825.48827 0 815.210905v-862.437609c0-17.426493 5.735101-33.502156 15.214608-46.733968a46.994654 46.994654 0 0 0 10.885633 18.413942"  horiz-adv-x="1546" />

    
    <glyph glyph-name="name1" unicode="&#58899;" d="M630.377 360.47400000000005c26.08 0.04 181.754-3.93 274.577-102.11 12.288-12.994 32.78-13.568 45.779-1.283 12.994 12.287 13.57 32.78 1.283 45.778-52.229 55.243-118.901 85.62-178.475 102.297 72.136 48.03 119.771 130.076 119.771 223.05C893.312 775.8679999999999 773.18 896 625.52 896 477.857 896 357.726 775.8679999999999 357.726 628.206c0-94.168 48.864-177.13 122.56-224.888-101.982-26.466-184.58-75.242-246.505-145.857-55.148-62.89-93.37-144.113-110.536-234.888-12.932-68.39-9.533-118.42-9.382-120.517 1.23-17.046 15.439-30.056 32.264-30.056 0.782 0 1.57 0.029 2.36 0.086 17.84 1.286 31.257 16.787 29.972 34.626-0.126 1.75-11.277 176.574 104.015 308.049 76.792 87.572 192.64 136.58 344.31 145.668 1.2 0.006 2.396 0.025 3.593 0.045z m-207.89 267.732c0 111.95 91.08 203.03 203.03 203.03s203.028-91.08 203.028-203.03c0-110.107-88.103-200.02-197.513-202.953-2.759-0.006-4.73-0.043-5.836-0.074-111.804 0.176-202.708 91.183-202.708 203.027zM727.723 103.59799999999996c0-17.885 14.497-32.382 32.382-32.382H1068.8c17.885 0 32.382 14.497 32.382 32.382s-14.497 32.382-32.382 32.382H760.105c-17.885 0-32.382-14.497-32.382-32.382zM1068.8-63.23400000000004H760.105c-17.885 0-32.382-14.497-32.382-32.382S742.22-128 760.105-128H1068.8c17.885 0 32.382 14.498 32.382 32.383s-14.497 32.382-32.382 32.382z"  horiz-adv-x="1212" />

    
    <glyph glyph-name="shu1" unicode="&#59183;" d="M288.05024-128a192 192 0 0 0-105.92 352 191.616 191.616 0 0 0 0 320A192 192 0 0 0 288.05024 896h640v-1024H288.05024zM160.05024 384a128 128 0 0 1 128-128V512a128 128 0 0 1-128-128z m704 448H288.05024a128 128 0 1 1 0-256V640h192v-64h384V832zM352.05024 576v-448h64V576H352.05024z m512-64H480.05024v-256h384V512z m0-320H480.05024v-128H288.05024v128a128 128 0 1 1 0-256h576v256z"  horiz-adv-x="1024" />

    
    <glyph glyph-name="lock" unicode="&#58922;" d="M819.2 492.8h-12.8V608c0 160-128 288-288 288H512C352 896 224 768 224 608v-115.2h-12.8c-44.8 0-83.2-38.4-83.2-83.2v-448c0-51.2 38.4-89.6 83.2-89.6h608c44.8 0 83.2 38.4 83.2 83.2v448c0 51.2-38.4 89.6-83.2 89.6zM326.4 608c0 96 83.2 179.2 179.2 179.2h19.2C620.8 787.2 704 704 704 608v-115.2H326.4V608z"  horiz-adv-x="1024" />

    
    <glyph glyph-name="hunyinzhuangkuang" unicode="&#59208;" d="M710.3 872.3c51.3 0 92.8-41.6 92.8-92.8 0-51.3-41.6-92.8-92.8-92.8-51.3 0-92.8 41.6-92.8 92.8 0 51.2 41.6 92.8 92.8 92.8zM263.4 797.9c46.1 1 83.5-37.4 83.5-83.5s-37.4-79.9-85.9-79.8c-38.3 0.1-56 20.5-65.4 24.4-14.8 6.2-42.8 25-57.8 39.1 6.7-2.9 24-7.1 18.3-3.6-21 12.5-50.5 44.8-34.7 36.1 13.7-7.6 22-16.8 37.3-16.7 6.5 0-20.8 17-27.7 27.2-9.6 14.3 29.7-16.6 49.6-15.8 4.9 35 32.4 71.4 82.8 72.6zM1 304.6c-11 144 114.3 298.8 269.5 299.9-66.2-16-120.7-48-147.6-91.1 70.7 68.8 158.3 99.5 270.6 74.3-168.1-2.4-243.5-86.1-270.9-154.4 84.6 103.2 183.6 166 318.5 129.3-179-12.6-273.2-114.2-266.9-242 8.1-108.6 91-176.3 220.2-174.5 123 2.3 205.7 79.1 254.2 209C660.7 196.6 525 37.6 334.1 28.3 138.6 28 13.6 138.1 1 304.6zM453.7 197c38-6.3 73.2-1.8 109.4 33 30.4 31.7 51.5 62.4 58.2 87.5-54.7-57.1-113.8-97-167.6-120.5z m-83.3 76.9l66.6 0.3C515.6 499.6 741.2 504.8 793 402c68.4-200-149.1-416.5-509.6-501.6 94.1 0.8 199.9 32 309.3 73.8-48.1-42.4-125.3-60.8-198.9-79.1 121.1 6.5 218.5 26.8 379.6 124.3-49.1-37.1-103.3-69.1-161.1-97.5 232.1 84 409.5 226.1 411.9 453.8-5.6 264.6-320.9 360.3-521.9 171.1 6.1 31.8 85.2 77.2 166.4 109-143.2-20-317.5-166.3-303.1-299.2 21.1-21 26.8-30.5 4.8-82.7z m0 0"  horiz-adv-x="1024" />

    
    <glyph glyph-name="gouwuche" unicode="&#58883;" d="M311.91616475 54.66946370000005q23.61237808 0 44.73924266-8.69929718t37.28270222-24.23375644 24.85513482-36.66132386 8.69929718-44.73924267-8.69929718-44.73924266-24.85513482-36.66132386-37.28270222-24.85513481-44.73924266-9.32067555q-24.85513482 0-45.36062105 9.32067555t-36.66132385 24.85513481-24.85513482 36.66132386-8.69929718 44.73924266 8.69929718 44.73924267 24.85513482 36.66132386 36.66132385 24.23375644 45.36062105 8.69929718zM828.90296889 52.18395022000004q23.61237808 0 45.36062103-8.69929719t37.28270223-24.23375644 24.85513482-36.66132384 9.32067555-44.73924267-9.32067555-44.73924267-24.85513482-36.66132386-37.28270223-24.8551348-45.36062103-9.32067557-44.73924267 9.32067557-36.66132385 24.8551348-24.85513482 36.66132386-9.32067555 44.73924267 9.32067555 44.73924267 24.85513482 36.66132384 36.66132385 24.23375644 44.73924267 8.69929719zM1037.68610133 758.06977897q34.79718875 0 54.05991822-9.32067556t27.3406483-22.99099971 7.45654045-29.2047834-4.3496486-26.71926993-15.53445925-45.9819994-26.71926993-76.42953956-29.20478341-82.64332326-21.74824296-64.62335052q-16.15583763-49.71026963-41.01097245-68.97299911t-60.89508029-19.26272949l-42.25372919 0-80.77918814 0-105.63432297 0-115.57637689 0-308.2036717 0 18.64135111-111.84810666 626.34939734 0q59.65232355 0 59.65232355-50.95302637 0-24.85513482-11.80618904-42.87510755t-46.60337778-18.01997275l-59.65232355 0-115.5763769 0-142.91702517 0-145.40253867 0-119.30464711 0-68.35162075 0q-24.85513482 0-41.6323508 11.18481067t-27.96202667 29.20478341-18.01997275 39.14683733-10.5634323 39.76821571q-1.24275675 7.45654045-6.83516206 36.03994548t-13.67032415 71.45851259-18.01997274 95.69226903-19.88410786 106.25570133q-23.61237808 125.51843082-53.43853985 279.62026667l-93.20675555 0q-18.64135111 0-31.06891852 9.32067556t-20.50548622 22.36962134-11.18481067 27.96202666-3.10689186 27.3406483q0 24.85513482 16.777216 41.01097244t45.36062104 16.15583763l27.3406483 0 24.85513481 0 31.06891852 0 42.25372919 0q24.85513482 0 39.7682157-7.45654044t23.61237807-18.64135111 12.42756741-23.61237808 6.21378371-21.12686459q2.48551348-9.94205392 4.97102695-27.96202666t4.97102697-36.66132386q3.72827022-22.36962133 7.45654045-47.22475614l850.04561066 0z"  horiz-adv-x="1024" />

    
    <glyph glyph-name="tubiaozhizuomoban1" unicode="&#58884;" d="M520.7 797c-148.5 0-268.9-120.4-268.9-268.9S519 5.6 519 5.6s270.5 374 270.5 522.5S669.2 797 520.7 797z m0-342.8c-48.2 0-87.3 39.1-87.3 87.3s39.1 87.3 87.3 87.3 87.3-39.1 87.3-87.3-39.1-87.3-87.3-87.3z"  horiz-adv-x="1024" />

    
    <glyph glyph-name="shanchu" unicode="&#58886;" d="M802.133 768H221.867c-51.2 0-93.867-42.667-93.867-93.867V640h768v34.133c0 51.2-42.667 93.867-93.867 93.867zM631.467 827.733l17.066-102.4H375.467l17.066 102.4h238.934zM640 896H384c-25.6 0-51.2-25.6-51.2-51.2l-25.6-128c0-25.6 17.067-51.2 42.667-51.2H665.6c25.6 0 42.667 25.6 42.667 51.2L691.2 844.8C691.2 870.4 665.6 896 640 896z m179.2-324.267H204.8c-34.133 0-59.733-25.6-59.733-59.733l51.2-580.267c0-34.133 34.133-59.733 68.266-59.733H742.4c34.133 0 68.267 25.6 68.267 59.733L861.867 512c17.066 34.133-8.534 59.733-42.667 59.733zM384 0h-93.867L256 443.733h128V0z m196.267 0h-128V443.733h128V0z m153.6 0H640V443.733h128L733.867 0z"  horiz-adv-x="1024" />

    
    <glyph glyph-name="google" unicode="&#58880;" d="M1008 792.704v-817.376c0-23.872-8.608-44.336-25.776-61.536-17.232-17.216-37.744-25.792-61.52-25.792H103.296c-23.776 0-44.336 8.576-61.52 25.792C24.624-69.008 16-48.544 16-24.672V792.704c0 23.792 8.624 44.288 25.776 61.52C58.96 871.408 79.52 880 103.296 880h817.408c23.776 0 44.288-8.592 61.52-25.776C999.392 837.008 1008 816.496 1008 792.704z m-448.336-75.376c0 7.248-7.312 10.896-21.872 10.896-2 0-19.136 0.176-51.568 0.496-32.448 0.336-56.416 0.336-71.968 0-15.504-0.336-35.52-1.664-59.968-3.984-24.544-2.304-44.016-5.776-58.528-10.384-38.368-12.56-68.928-33.056-91.776-61.552-22.816-28.4-34.224-62.112-34.224-101.168 0-46.288 14.544-83.648 43.648-112.032 29.04-28.416 66.784-42.32 113.072-41.664h5.984c0-15.92 0.656-27.456 1.952-34.784 1.328-7.264 3.008-11.072 5.008-11.408s4.464-1.952 7.408-4.96c2.96-2.944 5.744-7.744 8.464-14.368-36.384 0-70.304-3.92-101.712-11.856-31.408-7.968-59.616-23.776-84.8-47.664-25.088-23.776-37.664-53.872-37.664-90.272 0-50.88 20.336-88.784 61.024-113.6 40.688-24.752 88.112-37.168 142.304-37.168 60.88 0 113.632 15.04 158.24 45.152 44.656 30.096 67.008 74.192 67.008 132.416 0 25.104-6.448 49.248-19.36 72.4-12.848 23.152-27.28 41.344-43.12 54.576-15.904 13.184-30.256 25.936-43.136 38.16-12.912 12.288-19.376 21.696-19.376 28.336 0 7.248 4.96 15.68 14.928 25.28 9.904 9.584 20.928 19.168 33.2 28.768 12.288 9.584 23.344 24.96 33.264 46.192 9.904 21.088 14.88 45.648 14.88 73.424 0 50.208-14.544 85.6-43.648 106.096 0.704 0 5.744 0.512 15.408 1.504 9.6 0.992 16.336 1.968 20.336 2.976 3.904 1.008 9.6 2.624 16.864 4.96 7.264 2.32 12.368 5.632 15.376 9.92 2.8 4.224 4.352 9.312 4.352 15.312z m-79.408-510.912c0-29.12-14.208-52.56-42.64-70.368-28.464-17.904-58.24-26.816-89.344-26.816-31.04 0-59.312 7.888-84.752 23.776-25.456 15.888-38.224 38.416-38.224 67.488 0 31.776 13.552 55.568 40.688 71.424 27.088 15.856 57.52 23.792 91.248 23.792 30.464 0 58.56-7.792 84.384-23.296 25.712-15.584 38.64-37.584 38.64-66z m-54.592 342.272c0-23.184-5.12-43.04-15.392-59.504-10.24-16.576-26.272-24.88-48.064-24.88-28.464 0-51.056 15.04-67.968 45.152-16.832 30.096-25.28 60.336-25.28 90.8 0 23.136 5.12 42.928 15.408 59.488 10.224 16.512 26.272 24.8 48.128 24.8 28.416 0 51.056-15.024 67.92-45.12 16.88-30.128 25.248-60.368 25.248-90.736z m347.264 6.912h120v59.536h-120V736.16h-59.52v-121.024H592.4V555.6h121.008v-120.016h59.52V555.6z"  horiz-adv-x="1024" />

    
    <glyph glyph-name="skype" unicode="&#58881;" d="M781.588 272.819c0 22.201-4.305 42.506-12.93 60.885-8.624 18.439-19.386 33.596-32.301 45.592-12.884 11.967-29.08 22.864-48.573 32.603-19.492 9.769-37.795 17.325-54.94 22.683a765.693 765.693 0 0 1-58.25 15.338l-69.27 15.94c-13.29 3.116-23.06 5.434-29.29 6.984-6.262 1.536-13.999 4.094-23.256 7.662-9.272 3.582-15.925 7.15-19.944 10.656s-7.691 8.174-10.988 13.969a40.505 40.505 0 0 0-5.027 19.944c0 34.183 31.955 51.282 95.836 51.282 19.1 0 36.17-2.665 51.297-8.008 15.097-5.328 27.093-11.665 35.944-18.996a538.108 538.108 0 0 0 25.317-22.307 128.845 128.845 0 0 1 26.582-19.341 65.4 65.4 0 0 1 31.94-7.993c20.862 0 37.6 7.09 50.259 21.283 12.689 14.194 19.01 31.309 19.01 51.298 0 24.414-12.417 46.48-37.313 66.168-24.866 19.718-56.37 34.68-94.466 44.885-38.097 10.235-78.511 15.353-121.139 15.353-30.149 0-59.44-3.447-87.828-10.326a306.338 306.338 0 0 1-79.564-31.278 160.409 160.409 0 0 1-59.215-57.92c-14.811-24.655-22.262-53.148-22.307-85.525 0-27.109 4.2-50.725 12.599-70.88a126.436 126.436 0 0 1 37.313-50.273 226.848 226.848 0 0 1 53.24-32.287c19.025-8.173 41.889-15.368 68.576-21.644l97.19-23.933c39.918-9.754 64.784-17.776 74.538-23.963 14.194-8.85 21.298-22.171 21.298-39.917 0-17.325-8.85-31.67-26.566-42.959-17.762-11.289-41.032-16.948-69.887-16.948-22.593 0-42.913 3.537-60.915 10.656-18.002 7.105-32.422 15.64-43.274 25.619-10.838 9.994-20.923 20.004-30.24 29.998s-19.507 18.53-30.585 25.649a65.461 65.461 0 0 1-35.96 10.642c-22.216 0-38.954-6.638-50.243-19.929-11.304-13.306-16.948-29.938-16.948-49.912 0-40.836 27.063-75.757 81.19-104.792 54.127-29.02 118.67-43.56 193.628-43.59 32.347 0 63.43 4.094 93.172 12.327 29.773 8.233 56.926 20.11 81.536 35.598 24.595 15.518 44.223 36.245 58.854 62.21 14.675 25.964 21.99 55.105 21.99 87.497h-0.09z m241.584-144.409c0-70.563-24.941-130.771-74.883-180.684-49.913-49.912-110.136-74.913-180.684-74.913-57.71 0-109.608 17.761-155.728 53.254-34.183-7.105-67.478-10.657-99.854-10.657-63.43 0-124.119 12.312-182.054 36.983-57.935 24.655-107.847 57.92-149.767 99.84s-75.2 91.846-99.84 149.751A460.229 460.229 0 0 0 43.38 384.038c0 32.376 3.552 65.656 10.657 99.854C18.544 530.042 0.797 581.986 0.797 639.62c0 70.533 24.957 130.771 74.9 180.684C125.608 870.216 185.831 895.187 256.38 895.187c57.694 0 109.593-17.746 155.728-53.239a489.053 489.053 0 0 0 99.84 10.672C575.39 852.62 636.05 840.278 694 815.638c57.95-24.67 107.847-57.935 149.752-99.855 41.92-41.905 75.184-91.832 99.84-149.767a459.898 459.898 0 0 0 36.967-182.054c0-32.346-3.522-65.626-10.642-99.84 35.523-46.179 53.254-98.063 53.254-155.712z"  horiz-adv-x="1024" />

    
    <glyph glyph-name="f11" unicode="&#58885;" d="M370.02499547 512.18303383l284.65275762 0c15.75316235 0 28.49454517-12.64240415 28.49454517-28.39415252 0-7.32583558-2.80958025-13.94750861-7.32583559-18.96431321l-140.7702927-187.82899447c-9.43266728-12.44020486-27.19085468-15.05041379-39.73428016-5.6191605-2.20863833 1.60628242-4.11327074 3.51232881-5.61916051 5.6191605L347.34898213 466.83100715c-9.33086064 12.44161884-6.82104436 30.30019891 5.71955316 39.63247352C358.18714652 510.37738009 364.10607099 512.18303382 370.02499547 512.18303383L370.02499547 512.18303383z"  horiz-adv-x="1024" />

    
    <glyph glyph-name="shenfenzhenghao" unicode="&#58961;" d="M813.388108 641.107027H210.611892a86.071351 86.071351 0 0 1-86.071351-86.071351v-387.45946a86.071351 86.071351 0 0 1 86.071351-86.071351h602.776216a86.071351 86.071351 0 0 1 86.071351 86.071351v387.45946a86.071351 86.071351 0 0 1-86.071351 86.071351z m43.174054-473.530811a43.174054 43.174054 0 0 0-43.174054-43.174054H210.611892a43.174054 43.174054 0 0 0-43.174054 43.174054v387.45946a43.174054 43.174054 0 0 0 43.174054 43.174054h602.776216a43.174054 43.174054 0 0 0 43.174054-43.174054zM732.021622 344.147027a107.658378 107.658378 0 1 1-138.378379 0 150.832432 150.832432 0 0 1-81.366486-133.673513 21.587027 21.587027 0 0 1 43.174054 0 107.658378 107.658378 0 0 0 215.316757 0 21.587027 21.587027 0 0 1 43.174054 0 150.832432 150.832432 0 0 1-81.366487 133.673513zM598.071351 425.513514a64.484324 64.484324 0 1 0 64.484325-64.484325A64.484324 64.484324 0 0 0 598.071351 425.513514z m-107.658378 64.484324H232.198919a21.587027 21.587027 0 1 1 0-43.174054h258.214054a21.587027 21.587027 0 0 1 0 43.174054z m-21.587027-107.658379H232.198919a21.587027 21.587027 0 1 1 0-43.174054h236.903784a21.587027 21.587027 0 0 1 0 43.174054z m-64.484324-107.658378H232.198919a21.587027 21.587027 0 1 1 0-43.174054h172.142703a21.587027 21.587027 0 1 1 0 43.174054z"  horiz-adv-x="1024" />

    
    <glyph glyph-name="id" unicode="&#58994;" d="M588.8 38.4h-220.16c-17.92 0-30.72 12.8-30.72 30.72V698.88c0 17.92 12.8 30.72 30.72 30.72H588.8c158.72 0 286.72-128 286.72-286.72v-117.76c0-158.72-128-286.72-286.72-286.72z m-189.44 61.44H588.8c125.44 0 225.28 99.84 225.28 225.28v117.76c0 125.44-99.84 225.28-225.28 225.28h-189.44v-568.32zM179.2 38.4c-17.92 0-30.72 12.8-30.72 30.72V698.88c0 17.92 12.8 30.72 30.72 30.72s30.72-12.8 30.72-30.72v-629.76c0-17.92-12.8-30.72-30.72-30.72z"  horiz-adv-x="1024" />

    
    <glyph glyph-name="shimingrenzheng" unicode="&#58897;" d="M810.304 649.984H541.888a20.288 20.288 0 0 1-20.16-20.352c0-11.392 9.088-20.416 20.16-20.416h268.416a20.224 20.224 0 0 1 20.16 20.416 20.16 20.16 0 0 1-20.16 20.352z m0-101.632H541.888c-11.136 0-20.16-9.216-20.16-20.416s9.024-20.416 20.16-20.416h268.416c11.2 0 20.16 9.216 20.16 20.416s-8.96 20.416-20.16 20.416zM634.496 426.24a20.352 20.352 0 0 1-20.16 20.352h-72.448a20.352 20.352 0 0 1-20.16-20.352c0-11.328 9.088-20.48 20.16-20.48h72.448a20.352 20.352 0 0 1 20.16 20.48z m-361.472-31.296a74.368 74.368 0 0 0-16.384-12.864 106.24 106.24 0 0 0-31.616-13.504 465.6 465.6 0 0 1-34.56-10.56 100.48 100.48 0 0 1-29.056-16.128 42.88 42.88 0 0 1-15.104-29.184c-3.392-22.464-4.224-40.768-2.304-54.912 1.856-14.144 4.48-22.592 7.936-25.408a43.456 43.456 0 0 1 14.784-5.12c7.872-1.728 17.408-3.52 28.672-5.12 11.264-1.728 23.744-3.392 37.504-4.928a1480.32 1480.32 0 0 1 82.24-6.976 592.704 592.704 0 0 1 69.504 0 1391.36 1391.36 0 0 1 85.824 7.168 729.192 729.192 0 0 1 23.232 3.264v144.64c-2.752 0.768-5.248 1.472-7.936 2.112a258.624 258.624 0 0 0-27.904 9.472 72.128 72.128 0 0 0-22.144 12.864 52.928 52.928 0 0 0-11.776 15.232 44.16 44.16 0 0 0-4.288 16.064 59.264 59.264 0 0 0 1.024 15.808c1.344 8.576 4.096 14.72 8.192 18.304 4.096 3.712 9.344 8.064 15.744 13.248a33.728 33.728 0 0 1 7.424 10.112c2.24 4.352 4.16 8.768 5.824 13.248 1.792 5.12 3.52 10.688 5.184 16.512a26.944 26.944 0 0 1 9.728 5.76 33.408 33.408 0 0 1 7.424 10.112 46.208 46.208 0 0 1 4.352 17.28 36.352 36.352 0 0 1-3.584 23.232 18.176 18.176 0 0 1-5.696 6.72c0 14.208-0.768 28.16-2.496 41.92a260.224 260.224 0 0 1-8.704 38.144 108.736 108.736 0 0 1-19.456 36.352A78.208 78.208 0 0 1 429.12 702.4a122.88 122.88 0 0 1-22.784 12.864 149.504 149.504 0 0 1-27.392 9.088 125.76 125.76 0 0 1-29.376 3.392c-7.808 0-15.872-0.64-24.256-1.792a110.08 110.08 0 0 1-49.472-21.248 98.88 98.88 0 0 1-21.76-23.488 110.144 110.144 0 0 1-16.064-34.24 245.888 245.888 0 0 1-9.408-75.008 32 32 0 0 1-6.656-10.88 45.44 45.44 0 0 1-2.88-12.48 37.056 37.056 0 0 1 2.304-16 39.936 39.936 0 0 1 12.864-20.736 25.536 25.536 0 0 1 7.04-3.648c1.792-5.824 3.456-11.392 5.12-16.512 1.728-4.48 3.648-8.896 5.568-13.248 2.112-4.224 4.48-7.616 7.232-10.048 5.76-4.8 11.072-9.472 15.808-14.208s7.488-10.944 8.128-18.944c0.384-5.504 0.576-10.496 0.576-14.976s-0.896-8.768-2.56-12.928a43.008 43.008 0 0 0-8.128-12.416zM105.28 166.464a52.8 52.8 0 0 0-46.784 52.608V730.816c0 29.056 23.488 50.688 52.16 50.688h763.712c28.672 0 54.4-21.632 54.4-50.688v-317.504c12.8-10.176 39.68-21.376 50.432-33.6V763.968C979.2 803.008 929.856 832 891.392 832H78.016C39.488 832 8 787.968 8 748.864v-547.2c0-36.608 27.584-81.984 62.72-85.76h435.008c-3.136 11.456-5.44 38.464-7.04 50.496H105.28v0.064z m547.968 33.216a23.936 23.936 0 0 1-17.088-7.616 24.128 24.128 0 0 1-6.272-17.344 24.064 24.064 0 0 1 7.424-16.64l100.352-94.592a24.32 24.32 0 0 1 18.368-6.4 24.448 24.448 0 0 1 16.96 9.728l135.296 186.432a24.256 24.256 0 0 1-5.12 33.6 24.128 24.128 0 0 1-33.216-5.12L750.464 116.992l-80.768 76.16a22.528 22.528 0 0 1-16.448 6.528m124.928 218.176c-131.392 0-237.888-107.84-237.888-240.96 0-133.056 106.496-240.96 237.888-240.96C909.44-64.064 1016 43.84 1016 176.896c0 133.184-106.56 240.96-237.824 240.96z m0-436.608c-106.752 0-193.28 87.616-193.28 195.712 0 108.096 86.528 195.776 193.28 195.776 106.624 0 193.216-87.616 193.216-195.776 0-108.096-86.592-195.712-193.216-195.712z m0 0"  horiz-adv-x="1024" />

    
    <glyph glyph-name="wenjian" unicode="&#59420;" d="M543.41632 822.42048H214.59968c-21.91872 0-36.54144-14.61248-36.54144-36.54144v-803.7632c0-21.9136 14.6176-36.53632 36.54144-36.53632h584.55552c21.92896 0 36.54144 14.6176 36.54144 36.53632V530.14016h-219.2128c-40.18688 0-73.06752 32.88064-73.06752 73.06752V822.42048z m73.0624-14.6176v-204.5952h204.60544l-204.60544 204.5952zM214.59968 895.488h401.87904c10.96192 0 18.26816-3.65056 25.57952-10.96192l255.744-255.73888c7.31136-7.31136 10.96192-14.6176 10.96192-25.57952v-621.09696c0-62.1056-47.488-109.60384-109.60896-109.60384H214.59968c-62.11072 0-109.59872 47.49824-109.59872 109.60384V785.87904C105.00096 847.98976 152.48896 895.488 214.59968 895.488z m73.07264-401.88928h182.6816c21.9136 0 36.5312-14.60736 36.5312-36.5312 0-21.91872-14.61248-36.53632-36.5312-36.53632h-182.6816c-21.91872 0-36.54144 14.61248-36.54144 36.53632 0 21.92896 14.6176 36.5312 36.54144 36.5312z m0-146.13504h438.42048c21.91872 0 36.54144-14.61248 36.54144-36.53632s-14.6176-36.5312-36.54144-36.5312H287.67232c-21.91872 0-36.54144 14.60736-36.54144 36.5312s14.6176 36.53632 36.54144 36.53632z m0-146.13504h438.42048c21.91872 0 36.54144-14.61248 36.54144-36.54144 0-21.9136-14.6176-36.53632-36.54144-36.53632H287.67232c-21.91872 0-36.54144 14.6176-36.54144 36.53632 0 21.92896 14.6176 36.54144 36.54144 36.54144z m0 0"  horiz-adv-x="1024" />

    
    <glyph glyph-name="xiaoxixinxiduanxintixingyoujiantongzhisixin" unicode="&#59533;" d="M896.170667 99.555556l-276.024889 248.661333-74.126222-50.147556c-20.195556-13.653333-46.705778-13.539556-66.901334 0.227556l-68.835555 46.904889L128.597333 99.555556h767.573334zM910.222222 163.470222V544.398222l-241.521778-163.356444L910.222222 163.441778z m-796.444444-1.365333l247.921778 216.206222L113.777778 547.271111v-385.166222z m-56.888889-62.577778V668.444444a56.888889 56.888889 0 0 0 56.888889 56.888889h796.444444a56.888889 56.888889 0 0 0 56.888889-56.888889v-568.888888a56.888889 56.888889 0 0 0-56.888889-56.888889H113.777778a56.888889 56.888889 0 0 0-56.888889 56.832zM910.222222 613.063111V668.444444H113.777778v-52.337777l397.368889-270.791111a2.673778 2.673778 0 0 1 2.986666-0.113778L910.222222 613.091556z"  horiz-adv-x="1024" />

    
    <glyph glyph-name="shengri" unicode="&#58904;" d="M872.296296 277.807407h-37.925926V535.703704c0 51.2-41.718519 91.022222-94.814814 91.022222H284.444444c-53.096296 0-94.814815-41.718519-94.814814-91.022222v-257.896297h-37.925926V535.703704c0 72.059259 58.785185 128.948148 132.74074 128.948148h455.111112c73.955556 0 132.740741-58.785185 132.74074-128.948148v-257.896297zM502.518519 755.674074h18.962962c11.377778 0 18.962963-7.585185 18.962963-18.962963v-128.948148c0-11.377778-7.585185-18.962963-18.962963-18.962963h-18.962962c-11.377778 0-18.962963 7.585185-18.962963 18.962963v128.948148c0 11.377778 7.585185 18.962963 18.962963 18.962963zM455.111111 839.111111a56.888889 54.992593 0 1 1 113.777778 0 56.888889 54.992593 0 1 1-113.777778 0ZM284.444444 427.614815c-53.096296 0-94.814815 37.925926-94.814814 83.437037 0 11.377778 9.481481 18.962963 18.962963 18.962963s18.962963-9.481481 18.962963-18.962963c0-24.651852 24.651852-43.614815 54.992592-43.614815 30.340741 0 54.992593 18.962963 54.992593 43.614815 0 11.377778 9.481481 18.962963 18.962963 18.962963s18.962963-9.481481 18.962963-18.962963c3.792593-45.511111-39.822222-83.437037-91.022223-83.437037zM436.148148 427.614815c-53.096296 0-94.814815 37.925926-94.814815 83.437037 0 11.377778 9.481481 18.962963 18.962963 18.962963s18.962963-9.481481 18.962963-18.962963c0-24.651852 24.651852-43.614815 54.992593-43.614815s54.992593 18.962963 54.992592 43.614815c0 11.377778 9.481481 18.962963 18.962963 18.962963 11.377778 0 18.962963-9.481481 18.962963-18.962963 3.792593-45.511111-37.925926-83.437037-91.022222-83.437037zM587.851852 427.614815c-53.096296 0-94.814815 37.925926-94.814815 83.437037 0 11.377778 9.481481 18.962963 18.962963 18.962963 11.377778 0 18.962963-9.481481 18.962963-18.962963 0-24.651852 24.651852-43.614815 54.992593-43.614815s54.992593 18.962963 54.992592 43.614815c0 11.377778 9.481481 18.962963 18.962963 18.962963s18.962963-9.481481 18.962963-18.962963c3.792593-45.511111-39.822222-83.437037-91.022222-83.437037zM739.555556 427.614815c-53.096296 0-94.814815 37.925926-94.814815 83.437037 0 11.377778 9.481481 18.962963 18.962963 18.962963s18.962963-9.481481 18.962963-18.962963c0-24.651852 24.651852-43.614815 54.992592-43.614815s54.992593 18.962963 54.992593 43.614815c0 11.377778 9.481481 18.962963 18.962963 18.962963s18.962963-9.481481 18.962963-18.962963c3.792593-45.511111-37.925926-83.437037-91.022222-83.437037zM948.148148 275.911111c20.859259 0 37.925926-17.066667 37.925926-37.925926V-52.148148c0-20.859259-17.066667-37.925926-37.925926-37.925926h-872.296296c-20.859259 0-37.925926 17.066667-37.925926 37.925926V237.985185c0 20.859259 17.066667 37.925926 37.925926 37.925926h872.296296m0 37.925926h-872.296296c-41.718519 0-75.851852-34.133333-75.851852-75.851852V-52.148148c0-41.718519 34.133333-75.851852 75.851852-75.851852h872.296296c41.718519 0 75.851852 34.133333 75.851852 75.851852V237.985185c0 41.718519-34.133333 75.851852-75.851852 75.851852zM132.740741 97.659259c-53.096296 0-94.814815 37.925926-94.814815 83.437037 0 11.377778 9.481481 18.962963 18.962963 18.962963s18.962963-9.481481 18.962963-18.962963C75.851852 156.444444 100.503704 137.481481 130.844444 137.481481c30.340741 0 54.992593 18.962963 54.992593 43.614815 0 11.377778 9.481481 18.962963 18.962963 18.962963s18.962963-9.481481 18.962963-18.962963c3.792593-47.407407-39.822222-83.437037-91.022222-83.437037zM284.444444 97.659259c-53.096296 0-94.814815 37.925926-94.814814 83.437037 0 11.377778 9.481481 18.962963 18.962963 18.962963s18.962963-9.481481 18.962963-18.962963C227.555556 156.444444 252.207407 137.481481 282.548148 137.481481s54.992593 18.962963 54.992593 43.614815c0 11.377778 9.481481 18.962963 18.962963 18.962963s18.962963-9.481481 18.962963-18.962963c3.792593-47.407407-39.822222-83.437037-91.022223-83.437037zM436.148148 97.659259c-53.096296 0-94.814815 37.925926-94.814815 83.437037 0 11.377778 9.481481 18.962963 18.962963 18.962963s18.962963-9.481481 18.962963-18.962963C379.259259 156.444444 403.911111 137.481481 434.251852 137.481481s54.992593 18.962963 54.992592 43.614815c0 11.377778 9.481481 18.962963 18.962963 18.962963s18.962963-9.481481 18.962963-18.962963c3.792593-47.407407-37.925926-83.437037-91.022222-83.437037zM587.851852 97.659259c-53.096296 0-94.814815 37.925926-94.814815 83.437037 0 11.377778 9.481481 18.962963 18.962963 18.962963s18.962963-9.481481 18.962963-18.962963c0-24.651852 24.651852-43.614815 54.992593-43.614815s54.992593 18.962963 54.992592 43.614815c0 11.377778 9.481481 18.962963 18.962963 18.962963 11.377778 0 18.962963-9.481481 18.962963-18.962963 5.688889-47.407407-37.925926-83.437037-91.022222-83.437037zM739.555556 97.659259c-53.096296 0-94.814815 37.925926-94.814815 83.437037 0 11.377778 9.481481 18.962963 18.962963 18.962963 11.377778 0 18.962963-9.481481 18.962963-18.962963 0-24.651852 24.651852-43.614815 54.992592-43.614815 30.340741 0 54.992593 18.962963 54.992593 43.614815 0 11.377778 9.481481 18.962963 18.962963 18.962963 11.377778 0 18.962963-9.481481 18.962963-18.962963 5.688889-47.407407-37.925926-83.437037-91.022222-83.437037zM891.259259 97.659259c-53.096296 0-94.814815 37.925926-94.814815 83.437037 0 11.377778 9.481481 18.962963 18.962963 18.962963 11.377778 0 18.962963-9.481481 18.962963-18.962963 0-24.651852 24.651852-43.614815 54.992593-43.614815 30.340741 0 54.992593 18.962963 54.992593 43.614815 0 11.377778 9.481481 18.962963 18.962963 18.962963 11.377778 0 18.962963-9.481481 18.962962-18.962963 3.792593-47.407407-37.925926-83.437037-91.022222-83.437037z"  horiz-adv-x="1024" />

    
    <glyph glyph-name="facebook" unicode="&#58928;" d="M832 896c52.906667 0 98.0992-18.773333 135.645867-56.32C1005.226667 802.133333 1024 756.906667 1024 704v-639.965867c0-52.906667-18.773333-98.0992-56.32-135.68-37.546667-37.546667-82.807467-56.32-135.68-56.32h-125.3376v396.629334h132.676267l20.002133 154.692266h-152.644267v98.645334c0 24.917333 5.2224 43.554133 15.701334 55.978666 10.410667 12.458667 30.754133 18.705067 60.962133 18.705067l81.373867 0.682667V735.300267c-27.989333 3.9936-67.584 6.007467-118.6816 6.007466-60.484267 0-108.817067-17.783467-145.032534-53.3504-36.181333-35.566933-54.306133-85.777067-54.306133-150.664533v-114.005333H413.354667v-154.692267h133.3248V-128H192c-52.906667 0-98.0992 18.773333-135.645867 56.32C18.773333-34.133333 0 11.093333 0 64V703.965867c0 52.906667 18.773333 98.0992 56.32 135.68C93.866667 877.192533 139.1616 895.965867 192.034133 895.965867h640.068267L832 896z"  horiz-adv-x="1024" />

    
    <glyph glyph-name="nichengiconx" unicode="&#58998;" d="M837.717333 203.776s-176.938667-28.672-237.226666-120.832c0 0-14.08-8.192-14.08-40.96 0-20.48 14.08-34.816 14.08-34.816 66.304-108.544 237.226667-135.168 237.226666-135.168 32.128 0 58.282667 26.624 58.282667 59.392v210.944c0 34.816-26.154667 61.44-58.282667 61.44z m0-256s0-14.336-14.08-14.336c0 0-162.858667 51.2-162.858666 104.448 0 0-28.16 57.344 162.858666 104.448 12.032 2.048 16.085333-12.288 14.08-14.336v-180.224zM512 82.944c-24.106667 0-44.245333-20.48-44.245333-45.056 0-24.576 20.138667-45.056 44.245333-45.056s44.245333 20.48 44.245333 45.056c0 24.576-20.138667 45.056-44.245333 45.056z m-325.717333 120.832c-32.128 0-58.282667-26.624-58.282667-59.392v-210.944c0-32.768 26.154667-59.392 58.282667-59.392 0 0 182.954667 38.912 237.226666 135.168 0 0 14.08 16.384 14.08 34.816 0 24.576-14.08 40.96-14.08 40.96-40.192 79.872-237.226667 118.784-237.226666 118.784z m176.938666-165.888c0-53.248-160.853333-104.448-160.853333-104.448-14.08 0-14.08 14.336-14.08 14.336V128c0 2.048 2.048 18.432 14.08 14.336 189.013333-47.104 160.853333-104.448 160.853333-104.448z m134.698667 135.168c194.986667 0 353.834667 161.792 353.834667 360.448C851.754667 734.208 692.949333 896 497.92 896 300.885333 896 142.08 734.208 142.08 535.552c0-200.704 158.805333-362.496 355.84-362.496z m0 663.552c162.858667 0 295.552-135.168 295.552-301.056s-132.693333-301.056-295.552-301.056c-162.858667 0-295.552 133.12-295.552 301.056 0 165.888 130.688 301.056 295.552 301.056z"  horiz-adv-x="1024" />

    
    <glyph glyph-name="--tianxiebaobaoxinxidetubiao-" unicode="&#58905;" d="M329.856 351.744a176.256 176.256 0 1 0 176.256 176.256 176.512 176.512 0 0 0-176.256-176.256z m0 305.536a129.28 129.28 0 1 1 129.28-129.28 129.408 129.408 0 0 1-129.28 129.152zM470.912 216.576h-281.6a23.552 23.552 0 1 0 0 46.976h281.6a23.552 23.552 0 0 0 0-46.976zM329.856 64a23.552 23.552 0 0 0-23.552 23.552v281.6a23.552 23.552 0 0 0 46.976 0v-281.6A23.552 23.552 0 0 0 329.856 64zM694.144 60.8A176.256 176.256 0 1 0 870.4 237.056a176.512 176.512 0 0 0-176.256-176.256z m0 305.536a129.28 129.28 0 1 1 129.28-129.28 129.408 129.408 0 0 1-129.28 129.28zM694.144 372.224a23.552 23.552 0 0 0-23.552 23.552V678.4a23.552 23.552 0 1 0 46.976 0v-281.6a23.552 23.552 0 0 0-23.424-24.576zM835.2 530.944A23.424 23.424 0 0 0 819.2 537.6l-125.184 115.2-125.184-115.2A23.552 23.552 0 1 0 537.6 571.648l140.8 129.28a23.552 23.552 0 0 0 31.744 0l140.8-129.28a23.552 23.552 0 0 0-15.872-40.832z"  horiz-adv-x="1024" />

    
    <glyph glyph-name="shuxie" unicode="&#58942;" d="M924.50460605 402.74769698v-431.25230303H99.50544336V796.50460605h431.24225361V834H62v-900H962V402.74769698h-37.49539394zM468.84361573 376.05873486999997L895.14544151 802.36056065l26.52012685-26.52113233-426.30082031-426.30082119z"  horiz-adv-x="1024" />

    
    <glyph glyph-name="twitter" unicode="&#58923;" d="M236.307692 896h551.384616c130.500923 0 236.307692-105.806769 236.307692-236.307692v-551.384616c0-130.500923-105.806769-236.307692-236.307692-236.307692H236.307692C105.806769-128 0-22.193231 0 108.307692V659.692308C0 790.193231 105.806769 896 236.307692 896z m488.152616-381.932308l-0.787693 0.827077c-14.119385-2.737231-27.332923-9.885538-44.130461-9.787077 17.959385 12.307692 29.006769 26.978462 36.470154 47.419077-12.209231-5.336615-21.720615-9.353846-31.133539-13.646769-14.493538-6.596923-26.092308-6.124308-40.566154 4.686769-30.503385 22.803692-64.807385 23.138462-97.28 3.249231-31.960615-19.613538-46.375385-49.644308-42.299077-87.552 1.024-9.629538-2.638769-10.102154-10.043076-9.255385-43.52 4.962462-83.554462 19.219692-119.808 44.209231-19.731692 13.587692-36.667077 30.306462-53.366154 49.112616-11.992615-20.736-14.572308-41.550769-10.397539-63.586462 4.273231-22.567385 16.738462-40.113231 35.072-55.827692-14.198154-0.295385-24.891077 5.435077-37.612307 9.235692 2.048-45.686154 25.678769-73.373538 66.008615-89.6a106.732308 106.732308 0 0 0-25.245539-1.181538c-8.802462 0.787692-8.900923-2.638769-5.789538-9.137231 13.056-27.195077 33.988923-44.347077 63.212308-51.081846 4.155077-0.984615 8.369231-1.713231 14.237538-2.875077-11.716923-10.24-23.355077-16.088615-35.150769-21.523693-28.711385-13.272615-59.116308-17.329231-90.466462-15.084307 0.098462-3.623385 2.185846-4.135385 3.741539-4.982154 77.233231-43.539692 157.755077-49.447385 237.548308-11.933539 95.940923 45.095385 141.528615 126.326154 147.042461 231.561847 0.472615 9.196308 2.284308 15.497846 9.728 21.602461 12.071385 9.905231 24.064 20.401231 31.015385 35.150769z"  horiz-adv-x="1024" />

    
    <glyph glyph-name="weixin" unicode="&#59431;" d="M1002.88 307.136c0 65.472-29.184 128.832-82.304 178.368a327.616 327.616 0 0 1-195.52 85.056 15.04 15.04 0 0 1-0.32 3.328c-30.912 144.64-185.984 253.504-360.704 253.504C166.528 827.392 5.824 689.28 5.824 519.808c0-90.368 45.952-172.096 132.928-236.48L108.8 193.6a18.048 18.048 0 0 1 5.12-19.264 18.304 18.304 0 0 1 19.904-2.56l113.408 56.768 13.632-2.752c35.2-7.168 65.472-13.44 103.04-13.44 10.88 0 22.08 0.448 33.28 1.408a17.472 17.472 0 0 1 9.728 3.904c43.968-105.088 159.68-175.424 289.28-175.424 33.088 0 66.048 7.424 99.584 15.872l87.168-47.68a17.92 17.92 0 0 1 25.792 20.928l-21.952 73.088c74.816 59.776 116.096 131.712 116.096 202.688z m-154.24-201.152l12.928-42.944-54.848 30.016a17.92 17.92 0 0 1-13.12 1.664c-32-8.128-65.152-16.512-97.6-16.512-149.632 0-271.36 102.72-271.36 228.928s121.792 228.928 271.616 228.928c146.816 0 270.912-104.832 270.912-228.864 0-62.848-39.68-127.36-111.936-181.504a18.048 18.048 0 0 1-6.592-19.648zM177.024 284.544a17.92 17.92 0 0 1-6.784 20.416C85.12 364.352 41.792 436.608 41.792 519.808c0 149.632 144.64 271.296 322.24 271.296 155.584 0 294.144-94.08 324.288-219.52C522.816 568.128 388.672 449.92 388.672 307.2c0.128-19.392 2.688-38.656 7.616-57.408H394.24a342.4 342.4 0 0 0-30.272-1.28c-34.24 0-62.912 5.888-96.192 12.8l-19.456 3.904a17.6 17.6 0 0 1-11.52-1.536l-79.936-40.192 20.096 61.12z m23.232 309.824a50.56 50.56 0 1 1 101.056 0 50.56 50.56 0 0 1-101.056 0z m238.08 0a50.56 50.56 0 1 0 101.12 0 50.56 50.56 0 0 0-101.12 0zM558.72 341.76a44.672 44.672 0 1 0 89.344 0 44.672 44.672 0 0 0-89.344 0z m185.216 0a44.672 44.672 0 1 0 89.344 0 44.672 44.672 0 0 0-89.344 0z"  horiz-adv-x="1024" />

    
    <glyph glyph-name="dui" unicode="&#58920;" d="M517.193143 123.904l724.114286 724.114286 103.424-103.497143L517.12-83.017143 413.769143 20.48 0 434.176l103.424 103.497143 413.769143-413.769143z"  horiz-adv-x="1389" />

    
    <glyph glyph-name="yue" unicode="&#58893;" d="M512-96C211.822-96 85.943 11.219 85.943 231.658c0 182.639 142.799 373.198 315.898 433.257H622.22c173.219-60.06 315.838-250.618 315.838-433.257C937.998 11.219 812.239-96 512.001-96z m118.019 362.218c19.92 0.12 36.12 16.26 36.12 36.3 0 19.92-16.2 35.94-36.12 36.06v0.18h-73.14c0.12 0.84 0 1.5 0 2.34l85.679 87.479c14.04 15.72 6.78 28.68-7.26 42.96-14.22 14.28-37.44 17.34-48.9 4.86l-73.62-78.36-79.56 79.32c-10.02 10.14-29.64 6.78-43.74-7.2-14.1-14.16-17.46-33.78-7.32-43.8l81.36-81.24c-1.5-1.98-2.46-4.14-3.12-6.36h-66.12v-0.12h-0.18c-20.04 0-36.24-16.14-36.24-36.18s16.2-36.24 36.24-36.24h0.18v-0.12h72.48v-36h-72.48v-0.12h-0.18c-20.04 0-36.24-16.2-36.24-36.24 0-19.92 16.2-36.3 36.24-36.3H466.758v-36.42h0.78c-0.6-2.7-0.9-5.64-0.9-8.7 0-25.08 20.34-45.36 45.36-45.36 24.96 0 45.3 20.28 45.3 45.36 0 3.06-0.36 6-0.96 8.7h0.48v36.42h73.26c19.92 0.12 36 16.38 36 36.3s-16.08 36.12-36 36.12v0.24h-73.2v36h73.14v0.12z m54.12 543.417l-7.62-9.54c-0.12-0.12-0.24-0.36-0.36-0.6l-64.56-80.4H394.16l-64.38 80.28c-0.42 0.48-0.72 1.08-1.26 1.56l-6.9 8.7 1.26 2.52c-0.6 2.22-1.38 4.38-1.38 6.72 0 11.52 7.26 21.3 17.52 25.26l0.84 1.68s89.099 17.82 163.199 18.12c77.52 0.3 163.199-18.12 163.199-18.12l0.84-1.68c10.08-3.96 17.34-13.74 17.34-25.2 0-2.34-0.84-4.56-1.38-6.66l1.08-2.64z m0 0z"  horiz-adv-x="1024" />

    


  </font>
</defs>
</svg>
